<svg xmlns="http://www.w3.org/2000/svg" xml:space="preserve" viewBox="0 0 24 24" id="LinkedIn">
  <circle cx="3" cy="3" r="3" fill="#ffffff" class="color000000 svgShape"></circle>
  <path d="M5.5 8h-5a.5.5 0 0 0-.5.5v15a.5.5 0 0 0 .5.5h5a.5.5 0 0 0 .5-.5v-15a.5.5 0 0 0-.5-.5zM20.397 7.311c-2.137-.732-4.81-.089-6.413 1.064A.5.5 0 0 0 13.5 8h-5a.5.5 0 0 0-.5.5v15a.5.5 0 0 0 .5.5h5a.5.5 0 0 0 .5-.5V12.72c.808-.696 1.849-.918 2.701-.556.826.349 1.299 1.201 1.299 2.336v9a.5.5 0 0 0 .5.5h5a.5.5 0 0 0 .5-.5V13.493c-.057-4.109-1.99-5.63-3.603-6.182z" fill="#ffffff" class="color000000 svgShape"></path>
</svg>
